<?xml version="1.0" standalone="no"?><!DOCTYPE svg PUBLIC "-//W3C//DTD SVG 1.1//EN" "http://www.w3.org/Graphics/SVG/1.1/DTD/svg11.dtd"><svg t="1688364118443" class="icon" viewBox="0 0 1024 1024" version="1.1" xmlns="http://www.w3.org/2000/svg" p-id="1540" width="32" height="32" xmlns:xlink="http://www.w3.org/1999/xlink"><path d="M884.463 352.407c-20.511-48.423-49.759-91.872-87.139-129.251s-80.828-66.628-129.251-87.139c-50.123-21.238-103.402-31.918-158.257-31.918S401.682 114.9 351.559 136.017c-48.423 20.511-91.872 49.759-129.251 87.139-37.379 37.379-66.628 80.828-87.139 129.251-21.238 50.123-31.918 103.402-31.918 158.257s10.801 108.134 31.918 158.257c20.511 48.423 49.759 91.872 87.139 129.251 37.379 37.379 80.828 66.628 129.251 87.139 50.123 21.238 103.402 31.918 158.257 31.918s108.134-10.801 158.257-31.918c48.423-20.511 91.872-49.759 129.251-87.139 37.379-37.379 66.628-80.828 87.139-129.251 21.238-50.123 31.918-103.402 31.918-158.257 0.122-54.855-10.681-108.013-31.918-158.257zM509.937 859.099c-192.117 0-348.311-156.194-348.311-348.311S317.82 162.477 509.937 162.477s348.311 156.194 348.311 348.311c0 191.997-156.316 348.311-348.311 348.311z" p-id="1541"></path><path d="M696.471 359.446L436.875 619.042 314.299 496.466c-11.286-11.286-29.855-11.286-41.142 0s-11.286 29.855 0 41.142l143.209 143.209c11.286 11.286 29.855 11.286 41.142 0L737.735 400.59c11.286-11.286 11.286-29.855 0-41.142-11.408-11.286-29.977-11.286-41.264 0z" p-id="1542"></path></svg>